<?xml version="1.0" encoding="UTF-8"?>
<!DOCTYPE svg PUBLIC "-//W3C//DTD SVG 1.1//EN" "http://www.w3.org/Graphics/SVG/1.1/DTD/svg11.dtd">
<svg version="1.1" xmlns="http://www.w3.org/2000/svg" xmlns:xlink="http://www.w3.org/1999/xlink" x="0" y="0" width="256" height="256" viewBox="0, 0, 1024, 1024">
  <g id="Layer_1">
    <path d="M0,0 C337.92,0 675.84,0 1024,0 C1024,337.92 1024,675.84 1024,1024 C686.08,1024 348.16,1024 0,1024 C0,686.08 0,348.16 0,0 z" fill="#FCFDFC"/>
    <path d="M347.625,91.259 C351.52,91.255 351.52,91.255 355.493,91.25 C390.321,91.647 424.91,97.759 456,114.009 C457.905,114.992 459.81,115.974 461.773,116.986 C478.331,126.054 492.056,137.435 506,150.009 C507.359,151.2 508.717,152.391 510.117,153.619 C543.883,184.967 565.755,238.366 564,284.009 C566.139,283.905 566.139,283.905 568.32,283.798 C588.802,283.219 608.371,288.28 613.023,311.009 C613.55,322.911 610.741,330.319 604,340.009 C601.911,333.741 601.981,329.796 602.25,323.259 C602.339,306.287 593.856,294.167 575.723,292.971 C572.521,292.913 569.317,292.898 566.114,292.918 C564.357,292.897 562.599,292.876 560.789,292.855 C555.01,292.796 549.232,292.793 543.453,292.791 C539.435,292.761 535.416,292.727 531.398,292.69 C520.843,292.603 510.289,292.563 499.735,292.533 C488.956,292.494 478.177,292.41 467.398,292.33 C446.266,292.179 425.133,292.083 404,292.009 C404,312.469 404,332.929 404,354.009 C418.303,353.535 418.303,353.535 432.601,352.928 C449.789,352.638 449.789,352.638 452,366.009 C458.841,366.997 458.841,366.997 458.956,360.083 C464.168,349.684 474.064,352.539 484.703,352.837 C486.961,352.854 489.22,352.871 491.547,352.889 C498.783,352.956 506.015,353.107 513.25,353.259 C518.146,353.319 523.042,353.374 527.938,353.423 C564.055,353.822 564.055,353.822 564.25,367.259 C564.296,369.719 564.343,372.178 564.391,374.712 C564.003,381.956 562.557,387.268 560,394.009 C559.381,396.456 558.763,398.903 558.125,401.423 C549.492,435.539 531.647,462.35 508,488.009 C506.716,489.479 505.432,490.948 504.109,492.462 C492.07,505.544 476.963,514.644 462,524.009 C460.342,525.069 458.685,526.129 456.977,527.22 C444.773,534.551 431.624,538.152 418,542.009 C412.94,543.593 407.883,545.184 402.828,546.783 C295.179,574.131 176.521,508.495 144.781,402.009 C142.09,392.123 139.971,384.06 138,374.009 C137.546,371.846 137.093,367.772 136.625,365.543 C127.972,316.93 130.311,256.425 154,212.009 C154.601,210.855 155.201,207.789 155.82,206.6 C165.48,188.153 175.875,173.455 190,158.009 C191.516,156.331 194.438,152.827 196,151.098 C236.659,108.247 289.49,91.22 347.625,91.259 z" fill="#01D0FC"/>
    <path d="M792,186 C794.011,186.825 796.022,187.65 798.094,188.5 C869.914,221.247 905.966,301.561 874.93,375.688 C860.315,407.178 840.217,427.371 810,444 C808.585,444.817 807.169,445.635 805.711,446.477 C759.707,471.561 683.267,470.802 642.141,435.781 C628.763,425.888 616.809,425.755 600.625,426 C591.839,426 583.052,426 574,426 C574,402.9 574,379.8 574,356 C501.066,341.846 501.066,341.846 460,366 C453.058,369.807 452.499,368.749 448,362 C448,359.36 448,356.72 448,354 C433.48,354 418.96,354 404,354 C404,333.54 404,313.08 404,292 C427.193,291.729 450.384,291.509 473.578,291.378 C484.349,291.316 495.119,291.231 505.889,291.095 C516.289,290.964 526.688,290.893 537.089,290.861 C541.051,290.839 545.012,290.796 548.973,290.731 C554.537,290.644 560.096,290.632 565.66,290.638 C567.286,290.595 568.911,290.551 570.586,290.507 C587.574,290.689 603.3,300.41 604.391,318.469 C604.344,320.789 604.298,323.109 604.25,325.5 C604.214,327.841 604.178,330.182 604.141,332.594 C604.094,334.378 604.048,336.162 604,338 C613.781,322.514 613.935,304.729 600,292 C588.632,285.179 577.066,284.685 564,284 C564,282.68 564,281.36 564,280 C567.3,280 570.6,280 574,280 C574,259.54 574,239.08 574,218 C590.667,218 607.333,218 624,218 C626.409,216.004 628.728,213.901 631,211.75 C671.59,175.417 741.748,164.952 792,186 z" fill="#DF0FFB"/>
    <path d="M348.125,585.625 C349.869,585.6 351.613,585.576 353.41,585.551 C363.153,585.529 370.829,586.353 380,590 C381.459,590.353 382.918,590.706 384.422,591.07 C421.509,600.108 448.064,624.734 468,656 C469.119,657.704 470.238,659.408 471.391,661.164 C475.699,669.149 476.25,677.069 476.354,686.029 C476.392,688.944 476.392,688.944 476.432,691.918 C476.447,693.997 476.461,696.076 476.477,698.219 C476.493,700.381 476.509,702.544 476.525,704.773 C476.553,709.345 476.575,713.918 476.59,718.49 C476.613,723.149 476.654,727.808 476.713,732.467 C476.799,739.218 476.831,745.967 476.852,752.719 C476.887,754.782 476.922,756.845 476.958,758.971 C476.765,823.7 403.444,859.719 347.288,860.586 C271.131,861.027 203.088,814.824 201.035,732.744 C200.836,696.579 207.15,666.719 230,638 C231.109,636.533 232.217,635.066 233.359,633.555 C261.16,599.036 305.323,585.657 348.125,585.625 z" fill="#FDD602"/>
    <path d="M396,196 C397.72,196.655 399.439,197.31 401.211,197.984 C416.713,204.737 433.934,218.025 442.812,232.625 C447.889,238 452.948,236.868 460.125,236.875 C485.123,237.661 520,254.766 520,284 C521.926,283.969 523.852,283.937 525.836,283.905 C533.034,283.796 540.231,283.727 547.429,283.67 C550.535,283.64 553.64,283.6 556.746,283.547 C561.229,283.474 565.711,283.44 570.195,283.414 C571.567,283.383 572.938,283.352 574.351,283.32 C594.84,283.313 612.287,294.349 613.25,316.125 C612.675,325.907 609.543,332.031 604,340 C601.911,333.732 601.981,329.787 602.25,323.25 C602.339,306.277 593.856,294.158 575.723,292.962 C572.521,292.904 569.317,292.889 566.114,292.908 C563.478,292.877 563.478,292.877 560.789,292.846 C555.01,292.787 549.232,292.784 543.453,292.781 C539.435,292.751 535.416,292.718 531.398,292.681 C520.843,292.594 510.289,292.554 499.735,292.524 C488.956,292.484 478.177,292.4 467.398,292.32 C446.266,292.17 425.133,292.073 404,292 C404,312.46 404,332.92 404,354 C409.28,354 414.56,354 420,354 C423.328,357.445 423.328,357.445 425.25,362.125 C430.607,373.539 436.589,383.182 448,389.125 C454.487,393.787 450.867,397.307 448,404 C410.905,454.742 339.697,470.907 286,436 C222.276,388.963 221.909,291.257 262.031,229.359 C268.311,220.879 275.646,214.386 284,208 C285.25,207.036 286.501,206.072 287.789,205.078 C318.528,183.723 362.19,182.476 396,196 z" fill="#F9FCFC"/>
    <path d="M493.223,763.092 C496.166,763.093 496.166,763.093 499.168,763.094 C501.302,763.135 503.435,763.176 505.633,763.219 C508.891,763.236 508.891,763.236 512.216,763.253 C519.186,763.298 526.155,763.398 533.125,763.5 C537.837,763.54 542.549,763.577 547.262,763.609 C558.842,763.698 570.421,763.832 582,764 C578.392,770.529 576.332,773.779 570,778 C567.865,781.868 567.865,781.868 568,786 C569.204,786.539 570.408,787.078 571.648,787.633 C577.408,790.766 578.645,794.022 581.5,799.875 C591.286,818.612 601.956,834.56 620,846 C621.568,847.114 623.135,848.228 624.75,849.375 C640.59,857.295 656.114,858.993 673.625,858.75 C675.737,858.73 677.849,858.709 680.024,858.688 C720.321,857.888 758.728,841.858 773.703,801.398 C779.355,793.036 788.698,798.946 795.375,803.25 C797.131,804.356 798.886,805.462 800.695,806.602 C803.321,808.284 803.321,808.284 806,810 C818.068,817.412 830.304,824.518 842.625,831.5 C843.989,832.278 845.353,833.056 846.759,833.858 C853.697,837.768 860.49,841.269 868,844 C853.482,911.753 765.618,957.88 702.398,958.477 C700.728,958.493 699.057,958.509 697.336,958.526 C693.805,958.553 690.273,958.575 686.742,958.59 C683.203,958.613 679.665,958.654 676.126,958.713 C642.152,959.284 610.902,955.096 580,940 C578.206,939.165 576.411,938.329 574.562,937.469 C528.308,914.341 495.833,867.948 480,820 C479.355,818.252 478.711,816.504 478.047,814.703 C472.695,800.047 472.226,789.567 480.055,775.789 C482.229,772.079 482.229,772.079 482.545,767.82 C484.756,762.016 487.295,763.031 493.223,763.092 z" fill="#FDD602"/>
    <path d="M671.367,491.369 C676.199,491.375 681.028,491.328 685.859,491.277 C713.821,491.164 740.315,494.153 766,506 C767.464,506.593 768.929,507.186 770.438,507.797 C791.868,516.626 809.139,529.762 825.25,546.25 C826.894,547.912 828.537,549.574 830.23,551.286 C842.526,563.951 852.937,576.85 862,592 C863.134,593.717 864.269,595.434 865.438,597.203 C868.346,602.648 871.121,608.216 864.68,611.898 C863.094,612.386 861.509,612.873 859.875,613.375 C850.199,616.838 841.937,621.363 833.25,626.75 C822.151,633.603 810.95,639.78 799.172,645.422 C793.882,647.953 793.882,647.953 788.703,651.328 C784,654 784,654 778,654 C776.097,650.263 774.215,646.513 772.445,642.711 C754.45,608.042 720.593,591.255 682.778,591.149 C678.802,591.125 674.827,591.026 670.852,590.926 C636.891,590.739 587.913,611.849 582.75,650.5 C578.981,661.85 566.356,659.614 556.315,659.4 C540.973,659.207 538.481,664.496 534.75,678.375 C530.434,694.222 521.377,690.942 506.125,691.5 C503.878,691.675 501.631,691.851 499.316,692.031 C483.269,692.494 479.307,689.605 478.417,673.346 C478.402,667.545 478.402,667.545 474,662 C468.51,604.79 524.76,546.787 568,518 C569.521,516.987 571.042,515.974 572.609,514.93 C582.155,509.154 592.419,505.398 602.875,501.625 C604.259,501.124 605.643,500.623 607.069,500.107 C628.554,492.677 648.81,491.308 671.367,491.369 z" fill="#FDD602"/>
    <path d="M557.306,657.546 C558.672,657.545 560.038,657.545 561.445,657.544 C565.969,657.547 570.492,657.578 575.016,657.609 C578.149,657.617 581.282,657.622 584.415,657.627 C592.668,657.642 600.921,657.681 609.173,657.725 C617.592,657.766 626.011,657.784 634.43,657.805 C650.953,657.848 667.477,657.916 684,658 C681.36,662.62 678.72,667.24 676,672 C687.184,675.195 690.712,672.26 700,666 C717.992,668.726 720.249,693.582 720.266,707.617 C720.268,709.771 720.271,711.925 720.273,714.145 C720.266,716.366 720.258,718.587 720.25,720.875 C720.258,723.088 720.266,725.302 720.273,727.582 C720.228,765.773 702.372,795.555 660.516,796.454 C656.951,796.453 653.385,796.431 649.82,796.391 C646.987,796.382 646.987,796.382 644.096,796.373 C638.105,796.351 632.115,796.301 626.125,796.25 C622.046,796.23 617.966,796.212 613.887,796.195 C603.924,796.151 593.962,796.082 584,796 C583.946,790.708 583.906,785.417 583.875,780.125 C583.858,778.615 583.841,777.106 583.824,775.551 C583.764,762.05 583.764,762.05 591.943,761.868 C595.854,761.941 595.854,761.941 599.844,762.016 C602.708,762.051 605.573,762.084 608.438,762.117 C612.963,762.179 617.487,762.25 622.012,762.343 C626.372,762.428 630.732,762.474 635.094,762.516 C637.71,762.56 640.326,762.604 643.021,762.649 C650.436,761.959 653.956,760.154 660,756 C661.32,756 662.64,756 664,756 C668.729,745.779 668.538,736.006 668.375,725 C668.374,723.342 668.372,721.685 668.371,719.977 C668.307,711.075 667.583,702.785 666,694 C664.037,694.021 662.073,694.042 660.05,694.063 C652.614,694.137 645.177,694.182 637.741,694.22 C634.551,694.24 631.36,694.267 628.17,694.302 C609.298,694.504 591.27,693.781 572.578,690.962 C564.1,689.722 555.677,689.136 547.125,688.75 C545.639,688.673 544.152,688.595 542.621,688.516 C539.081,688.333 535.541,688.165 532,688 C534.295,669.571 537.277,657.474 557.306,657.546 z" fill="#04C9A0"/>
    <path d="M420,238 C420,244.051 416.83,243.953 411.625,246.5 C402.412,251.418 393.163,257.233 391.258,268.32 C389.4,273.756 387.335,272.806 381.875,272.75 C357.218,274.478 346.544,295.668 347.125,318 C347.111,319.537 347.097,321.073 347.082,322.656 C347.344,346.356 360.5,367.683 385.875,368.875 C395.958,368.616 401.8,365.704 410,360 C411.155,362.062 412.31,364.125 413.5,366.25 C416.268,371.109 419.141,375.711 422.25,380.375 C425.234,384.851 427.753,389.131 430,394 C411.133,406.305 392.092,406.853 370,406 C368.512,405.964 367.025,405.928 365.492,405.891 C340.232,404.156 316.37,384.335 306,362 C305.326,360.732 304.653,359.463 303.959,358.157 C297.785,345.863 296.894,335.494 297.25,321.875 C297.253,319.992 297.255,318.108 297.258,316.168 C297.704,280.555 314.406,254.598 348,242 C349.279,241.402 350.557,240.804 351.875,240.188 C372.102,231.654 398.778,234.856 420,238 z" fill="#05C8A5"/>
    <path d="M482,694 C497.41,693.862 512.818,693.743 528.228,693.67 C533.468,693.64 538.707,693.599 543.947,693.547 C551.488,693.474 559.029,693.44 566.57,693.414 C568.904,693.383 571.238,693.352 573.643,693.32 C598.86,693.315 621.228,702.636 622.75,730.75 C622.208,751.102 609.278,762.394 589.622,762.725 C584.607,762.64 579.592,762.51 574.578,762.344 C571.905,762.284 569.232,762.228 566.558,762.175 C559.554,762.027 552.552,761.83 545.549,761.622 C538.39,761.419 531.23,761.262 524.07,761.102 C482,760.15 482,760.15 482,694 z" fill="#FED604"/>
    <path d="M285.125,659.625 C287.025,659.597 288.925,659.568 290.883,659.539 C302.222,660.56 302.751,665.56 302.745,675.59 C302.763,679.234 302.763,679.234 302.782,682.951 C302.764,685.587 302.746,688.222 302.727,690.938 C302.726,693.657 302.727,696.377 302.73,699.097 C302.729,704.801 302.709,710.503 302.672,716.206 C302.627,723.524 302.626,730.841 302.639,738.158 C302.646,743.776 302.633,749.393 302.613,755.01 C302.602,759.023 302.604,763.036 302.607,767.049 C302.588,769.478 302.569,771.907 302.549,774.41 C302.54,776.557 302.531,778.703 302.521,780.914 C301.084,794.937 284.548,790.848 274,790 C235.111,781.759 229.255,741.542 232,708 C237.596,681.334 257.413,659.813 285.125,659.625 z" fill="#FCFDFA"/>
    <path d="M786,256 C825.319,256 857.922,273.882 858.875,316.875 C857.42,363.811 832.233,381.11 786,384 C786,341.76 786,299.52 786,256 z" fill="#FDFAFD"/>
    <path d="M433.75,353.25 C437.579,353.041 437.579,353.041 441.484,352.828 C450.524,354.454 449.906,357.602 452,366 C458.841,366.987 458.841,366.987 458.956,360.073 C464.168,349.674 474.064,352.53 484.703,352.828 C486.961,352.845 489.22,352.862 491.547,352.88 C498.783,352.947 506.015,353.098 513.25,353.25 C518.146,353.31 523.042,353.365 527.938,353.414 C539.96,353.547 551.98,353.748 564,354 C564,354.66 564,355.32 564,356 C562.588,355.977 561.176,355.954 559.721,355.93 C553.311,355.871 546.909,355.934 540.5,356 C538.278,355.961 536.055,355.923 533.766,355.883 C517.538,356.176 513.069,358.8 508,374 C492.824,394.09 476.253,397.331 452,396 C452,394.68 452,393.36 452,392 C450.52,391.433 449.04,390.866 447.516,390.281 C432.522,384.08 405.194,354.457 433.75,353.25 z" fill="#06C3B1"/>
    <path d="M715.898,679.906 C720.297,688.473 720.255,698.154 720.266,707.617 C720.268,709.771 720.271,711.925 720.273,714.145 C720.266,716.366 720.258,718.587 720.25,720.875 C720.258,723.088 720.265,725.302 720.273,727.582 C720.228,765.773 702.372,795.555 660.516,796.454 C656.951,796.453 653.385,796.431 649.82,796.391 C646.987,796.382 646.987,796.382 644.096,796.373 C638.105,796.351 632.115,796.301 626.125,796.25 C622.046,796.23 617.966,796.212 613.887,796.195 C603.924,796.151 593.962,796.082 584,796 C584,792.7 584,789.4 584,786 C586.49,786.002 588.98,786.005 591.545,786.007 C600.876,785.999 610.205,785.913 619.535,785.805 C623.555,785.769 627.576,785.753 631.597,785.76 C667.493,785.795 705.476,780.476 706.656,736.5 C706.635,732.333 706.583,728.166 706.5,724 C706.485,720.875 706.485,720.875 706.469,717.688 C707.714,689.545 707.714,689.545 694,670 C704.895,662.737 709.38,671.108 715.898,679.906 z" fill="#0D9FF8"/>
    <path d="M557.76,656.865 C559.126,656.863 560.493,656.862 561.901,656.86 C566.404,656.867 570.904,656.945 575.406,657.023 C578.534,657.042 581.661,657.056 584.788,657.066 C593.009,657.104 601.228,657.203 609.448,657.313 C617.84,657.416 626.232,657.461 634.625,657.512 C651.084,657.619 667.542,657.789 684,658 C678.011,676.602 664.826,673.864 647.57,673.523 C644.736,673.522 641.901,673.528 639.067,673.54 C631.609,673.56 624.155,673.502 616.698,673.422 C604.771,673.299 592.844,673.26 580.917,673.282 C576.758,673.274 572.602,673.213 568.443,673.148 C565.907,673.142 563.371,673.136 560.758,673.13 C558.531,673.106 556.303,673.081 554.008,673.056 C546.667,674.209 543.481,677.143 538,682 C536.68,682 535.36,682 534,682 C535.332,665.016 539.988,656.705 557.76,656.865 z" fill="#03A6F7"/>
    <path d="M474,662 C483.166,670.369 482.191,678.318 482,690 C483.266,689.939 484.531,689.879 485.835,689.816 C585.682,685.121 585.682,685.121 602,696 C594.25,698.25 594.25,698.25 592,696 C588.565,695.754 585.119,695.644 581.675,695.589 C579.473,695.549 577.271,695.51 575.002,695.468 C572.606,695.435 570.211,695.402 567.742,695.367 C565.303,695.326 562.865,695.284 560.352,695.241 C552.526,695.11 544.701,694.992 536.875,694.875 C531.585,694.789 526.294,694.701 521.004,694.613 C508.003,694.397 495.001,694.199 482,694 C482,715.78 482,737.56 482,760 C515.66,760 549.32,760 584,760 C584,793.36 517.353,763.333 484,764 C483.34,768.62 482.68,773.24 482,778 C479.125,783.375 479.125,783.375 476,788 C475.34,789.485 474.68,790.97 474,792.5 C472,796 472,796 466,798 C466.577,796.597 467.155,795.195 467.75,793.75 C471.718,783.61 474.503,775.149 474.454,764.173 C474.454,761.891 474.453,759.61 474.453,757.259 C474.422,753.612 474.422,753.612 474.391,749.891 C474.385,747.377 474.379,744.864 474.373,742.274 C474.355,735.626 474.319,728.978 474.275,722.33 C474.234,715.533 474.215,708.735 474.195,701.938 C474.151,688.625 474.084,675.312 474,662 z" fill="#FAF8E2"/>
    <path d="M464,252 C461.001,253.211 458.001,254.418 455,255.625 C452.262,256.731 452.262,256.731 449.469,257.859 C444.843,259.67 440.205,261.288 435.5,262.875 C424.704,266.896 416.632,273.193 412,284 C407.189,286.405 404.1,286.201 398.75,286.125 C396.298,286.098 396.298,286.098 393.797,286.07 C392.544,286.047 391.291,286.024 390,286 C399.554,259.725 436.884,224.884 464,252 z" fill="#F210FC"/>
    <path d="M506,278 C506,287.889 496.142,284.487 487.5,284.75 C485.755,284.851 484.009,284.951 482.211,285.055 C469.635,285.343 466.157,283.603 460,272 C452.772,269.122 452.772,269.122 446,268 C454.766,236.224 497.522,258.924 506,278 z" fill="#11C6C5"/>
    <path d="M350.25,597.5 C352.949,597.438 352.949,597.438 355.703,597.375 C375.09,597.264 391.095,602.328 407.5,612.5 C408.789,613.287 410.079,614.073 411.407,614.884 C422.512,621.886 431.694,629.083 436,642 C424,636 424,636 424,632 C420.674,630.649 417.338,629.321 414,628 C411.855,626.474 409.71,624.948 407.5,623.375 C381.753,607.217 351.454,606.317 322,606 C322,593.727 340.632,597.554 350.25,597.5 z" fill="#FDF8DF"/>
    <path d="M460,256 C458.061,257.237 456.122,258.475 454.125,259.75 C447.943,263.314 447.943,263.314 446,268 C447.98,268.66 449.96,269.32 452,270 C453.32,274.62 454.64,279.24 456,284 C440.16,284.66 424.32,285.32 408,286 C425.512,262.65 425.512,262.65 443.375,257.375 C445.651,256.681 447.928,255.988 450.273,255.273 C456,254 456,254 460,256 z" fill="#F5E1F9"/>
    <path d="M512,354 C529.16,354 546.32,354 564,354 C564,354.66 564,355.32 564,356 C562.588,355.977 561.176,355.954 559.721,355.93 C553.311,355.871 546.909,355.934 540.5,356 C538.278,355.961 536.055,355.923 533.766,355.883 C517.538,356.176 513.069,358.8 508,374 C492.824,394.09 476.253,397.331 452,396 C452,392 452,392 456.828,391.773 C477.178,390.511 494.073,385.49 504.5,366.375 C508,360 508,360 512,360 C512,358.02 512,356.04 512,354 z" fill="#5664D9"/>
    <path d="M433.75,353.125 C446.656,353.034 451.493,353.802 452,368 C423.134,372.53 423.134,372.53 420,358 C420,350.789 427.726,353.422 433.75,353.125 z" fill="#13CCDC"/>
    <path d="M450,268 C451.32,272.62 452.64,277.24 454,282 C444.1,282 434.2,282 424,282 C429.561,270.878 437.141,265.142 450,268 z" fill="#F20BFE"/>
    <path d="M512,354 C529.16,354 546.32,354 564,354 C564,354.66 564,355.32 564,356 C562.588,355.977 561.176,355.954 559.721,355.93 C553.311,355.871 546.909,355.934 540.5,356 C538.278,355.961 536.055,355.923 533.766,355.883 C520.148,356.129 513.707,356.828 509.475,370.57 C508,374 508,374 502,374 C507.526,360 507.526,360 512,360 C512,358.02 512,356.04 512,354 z" fill="#5C72E9"/>
    <path d="M448,354 C452.62,354 457.24,354 462,354 C460.786,368.266 460.786,368.266 452,368 C448,362 448,362 448,354 z" fill="#EDEFF9"/>
    <path d="M688,676 C686.02,676.99 686.02,676.99 684,678 C683.072,679.856 683.072,679.856 682.125,681.75 C679.942,686.116 677.586,688.74 674,692 C670.017,688.017 671.813,681.248 672,676 C675.952,672.048 682.95,675.174 688,676 z" fill="#A8D1B5"/>
    <path d="M406,354 C410.62,354 415.24,354 420,354 C418.02,355.32 416.04,356.64 414,358 C412.02,360.97 412.02,360.97 410,364 C406,362 406,362 406,354 z" fill="#A4DDEA"/>
    <path d="M132.018,91.25 L234.534,91.25 L234.534,552.992 L132.018,552.992 L132.018,91.25 z" fill="#01D0FC"/>
    <path d="M234.534,496 L347.625,496 L347.625,552.992 L234.534,552.992 L234.534,496 z" fill="#01D0FC"/>
    <path d="M234.534,91.241 L347.625,91.241 L347.625,126 L234.534,126 L234.534,91.241 z" fill="#01D0FC"/>
    <g>
      <path d="M231.419,187.171 L340,187.171 L340,234.707 L231.419,234.707 L231.419,187.171 z" fill="#F9FCFC"/>
      <path d="M231.419,187.171 L340,187.171 L340,234.707 L231.419,234.707 L231.419,187.171 z" fill-opacity="0" stroke="#F9FCFC" stroke-width="2"/>
    </g>
    <g>
      <path d="M231.419,407.078 L340,407.078 L340,454.613 L231.419,454.613 L231.419,407.078 z" fill="#F9FCFC"/>
      <path d="M231.419,407.078 L340,407.078 L340,454.613 L231.419,454.613 L231.419,407.078 z" fill-opacity="0" stroke="#F9FCFC" stroke-width="2"/>
    </g>
  </g>
</svg>
