<?xml version="1.0" encoding="UTF-8"?>
<!DOCTYPE svg PUBLIC "-//W3C//DTD SVG 1.1//EN" "http://www.w3.org/Graphics/SVG/1.1/DTD/svg11.dtd">
<svg version="1.1" xmlns="http://www.w3.org/2000/svg" xmlns:xlink="http://www.w3.org/1999/xlink" x="0" y="0" width="375" height="125" viewBox="0, 0, 1500, 500">
  <g id="Layer_1">
    <path d="M230.556,19.143 C234.45,19.138 234.45,19.138 238.423,19.134 C273.252,19.53 307.841,25.642 338.931,41.893 C340.836,42.875 342.741,43.857 344.704,44.869 C361.261,53.938 374.986,65.318 388.931,77.893 C390.289,79.084 391.648,80.275 393.048,81.502 C426.813,112.85 448.686,166.25 446.931,211.893 C449.069,211.788 449.069,211.788 451.251,211.682 C471.733,211.103 491.301,216.163 495.954,238.893 C496.48,250.794 493.671,258.203 486.931,267.893 C484.841,261.624 484.912,257.679 485.181,251.143 C485.27,234.17 476.787,222.051 458.654,220.855 C455.451,220.797 452.248,220.781 449.045,220.801 C447.287,220.78 445.53,220.76 443.719,220.738 C437.94,220.68 432.163,220.676 426.384,220.674 C422.365,220.644 418.347,220.611 414.328,220.574 C403.774,220.487 393.22,220.446 382.665,220.416 C371.886,220.377 361.108,220.293 350.329,220.213 C329.196,220.063 308.064,219.966 286.931,219.893 C286.931,240.353 286.931,260.813 286.931,281.893 C301.234,281.418 301.234,281.418 315.531,280.812 C332.72,280.522 332.72,280.522 334.931,293.893 C341.772,294.88 341.772,294.88 341.887,287.966 C347.099,277.567 356.995,280.423 367.634,280.721 C369.892,280.738 372.15,280.755 374.477,280.772 C381.713,280.84 388.945,280.99 396.181,281.143 C401.076,281.203 405.972,281.258 410.868,281.307 C446.986,281.705 446.986,281.705 447.181,295.143 C447.227,297.602 447.273,300.062 447.321,302.596 C446.933,309.84 445.487,315.151 442.931,321.893 C442.312,324.339 441.693,326.786 441.056,329.307 C432.422,363.423 414.577,390.234 390.931,415.893 C389.647,417.362 388.363,418.832 387.04,420.346 C375.001,433.427 359.893,442.528 344.931,451.893 C343.273,452.952 341.615,454.012 339.907,455.104 C327.704,462.435 314.554,466.036 300.931,469.893 C295.871,471.476 290.814,473.068 285.759,474.666 C178.109,502.014 59.451,436.378 27.712,329.893 C25.02,320.007 22.902,311.944 20.931,301.893 C20.477,299.73 20.023,295.656 19.556,293.427 C10.902,244.813 13.242,184.309 36.931,139.893 C37.531,138.738 38.132,135.673 38.751,134.484 C48.411,116.036 58.806,101.339 72.931,85.893 C74.446,84.214 77.369,80.711 78.931,78.982 C119.589,36.131 172.42,19.104 230.556,19.143 z" fill="#01D0FC"/>
    <path d="M674.931,113.883 C676.941,114.708 678.952,115.533 681.024,116.383 C752.844,149.13 788.896,229.445 757.86,303.571 C743.245,335.062 723.148,355.254 692.931,371.883 C691.515,372.701 690.1,373.518 688.641,374.36 C642.637,399.444 566.197,398.686 525.071,363.665 C511.693,353.772 499.739,353.638 483.556,353.883 C474.769,353.883 465.983,353.883 456.931,353.883 C456.931,330.783 456.931,307.683 456.931,283.883 C383.996,269.729 383.996,269.729 342.931,293.883 C335.988,297.691 335.43,296.632 330.931,289.883 C330.931,287.243 330.931,284.603 330.931,281.883 C316.411,281.883 301.891,281.883 286.931,281.883 C286.931,261.423 286.931,240.963 286.931,219.883 C310.123,219.612 333.315,219.392 356.509,219.262 C367.28,219.199 378.049,219.114 388.819,218.978 C399.22,218.848 409.619,218.776 420.02,218.745 C423.981,218.723 427.943,218.68 431.904,218.615 C437.467,218.527 443.026,218.516 448.591,218.521 C450.216,218.478 451.842,218.435 453.517,218.39 C470.505,218.573 486.231,228.294 487.321,246.352 C487.275,248.673 487.228,250.993 487.181,253.383 C487.144,255.724 487.108,258.065 487.071,260.477 C487.025,262.261 486.978,264.045 486.931,265.883 C496.711,250.398 496.865,232.612 482.931,219.883 C471.562,213.063 459.997,212.569 446.931,211.883 C446.931,210.563 446.931,209.243 446.931,207.883 C450.231,207.883 453.531,207.883 456.931,207.883 C456.931,187.423 456.931,166.963 456.931,145.883 C473.597,145.883 490.264,145.883 506.931,145.883 C509.339,143.888 511.659,141.784 513.931,139.633 C554.521,103.301 624.679,92.836 674.931,113.883 z" fill="#DF0FFB"/>
    <path d="M278.93,123.883 C280.65,124.538 282.37,125.193 284.141,125.868 C299.644,132.621 316.865,145.909 325.743,160.508 C330.82,165.884 335.879,164.751 343.055,164.758 C368.053,165.545 402.93,182.65 402.93,211.883 C404.857,211.852 406.783,211.821 408.767,211.788 C415.964,211.679 423.162,211.611 430.36,211.554 C433.465,211.524 436.571,211.483 439.676,211.431 C444.16,211.357 448.642,211.324 453.126,211.298 C454.497,211.267 455.869,211.236 457.282,211.204 C477.77,211.197 495.218,222.233 496.18,244.008 C495.606,253.79 492.474,259.915 486.93,267.884 C484.841,261.615 484.912,257.67 485.18,251.133 C485.27,234.161 476.787,222.042 458.654,220.846 C455.451,220.787 452.248,220.772 449.045,220.792 C446.409,220.761 446.409,220.761 443.719,220.729 C437.94,220.67 432.163,220.667 426.384,220.665 C422.365,220.635 418.347,220.601 414.328,220.565 C403.774,220.477 393.22,220.437 382.665,220.407 C371.886,220.368 361.108,220.284 350.329,220.204 C329.196,220.053 308.064,219.957 286.93,219.883 C286.93,240.344 286.93,260.803 286.93,281.884 C292.21,281.884 297.49,281.884 302.93,281.884 C306.259,285.329 306.259,285.329 308.18,290.009 C313.537,301.423 319.52,311.066 330.93,317.009 C337.417,321.671 333.798,325.19 330.93,331.884 C293.835,382.625 222.628,398.791 168.93,363.884 C105.206,316.847 104.84,219.14 144.962,157.243 C151.242,148.762 158.577,142.269 166.93,135.883 C168.181,134.919 169.431,133.955 170.72,132.962 C201.458,111.606 245.121,110.36 278.93,123.883 z" fill="#F9FCFC"/>
    <path d="M302.931,165.883 C302.931,171.934 299.761,171.836 294.556,174.383 C285.343,179.302 276.093,185.116 274.188,196.204 C272.33,201.639 270.265,200.69 264.806,200.633 C240.148,202.361 229.475,223.552 230.056,245.883 C230.041,247.42 230.027,248.957 230.013,250.54 C230.275,274.24 243.43,295.567 268.806,296.758 C278.888,296.499 284.73,293.588 292.931,287.883 C294.086,289.946 295.241,292.008 296.431,294.133 C299.198,298.992 302.071,303.595 305.181,308.258 C308.164,312.734 310.683,317.015 312.931,321.883 C294.064,334.188 275.023,334.736 252.931,333.883 C251.443,333.847 249.955,333.811 248.423,333.774 C223.162,332.039 199.301,312.219 188.931,289.883 C188.257,288.615 187.583,287.347 186.89,286.04 C180.715,273.747 179.825,263.377 180.181,249.758 C180.183,247.875 180.186,245.992 180.188,244.051 C180.634,208.439 197.337,182.481 230.931,169.883 C232.209,169.285 233.488,168.687 234.806,168.071 C255.033,159.538 281.708,162.739 302.931,165.883 z" fill="#05C8A5"/>
    <path d="M668.93,183.883 C708.249,183.883 740.852,201.765 741.805,244.758 C740.35,291.694 715.163,308.994 668.93,311.883 C668.93,269.643 668.93,227.403 668.93,183.883 z" fill="#FDFAFD"/>
    <path d="M316.681,281.133 C320.509,280.925 320.509,280.925 324.415,280.712 C333.454,282.337 332.837,285.486 334.931,293.883 C341.772,294.871 341.772,294.871 341.887,287.957 C347.099,277.558 356.995,280.414 367.634,280.712 C369.892,280.729 372.15,280.746 374.477,280.763 C381.713,280.83 388.945,280.981 396.181,281.133 C401.076,281.194 405.972,281.248 410.868,281.298 C422.89,281.43 434.91,281.631 446.931,281.883 C446.931,282.543 446.931,283.203 446.931,283.883 C445.518,283.86 444.106,283.837 442.651,283.813 C436.242,283.754 429.84,283.817 423.431,283.883 C421.208,283.845 418.986,283.806 416.696,283.766 C400.469,284.06 396,286.683 390.931,301.883 C375.755,321.974 359.184,325.214 334.931,323.883 C334.931,322.563 334.931,321.243 334.931,319.883 C333.451,319.316 331.971,318.749 330.446,318.165 C315.452,311.963 288.124,282.34 316.681,281.133 z" fill="#06C3B1"/>
    <path d="M346.931,179.883 C343.931,181.094 340.931,182.302 337.931,183.508 C335.193,184.615 335.193,184.615 332.399,185.743 C327.773,187.554 323.135,189.172 318.431,190.758 C307.634,194.78 299.562,201.076 294.931,211.883 C290.12,214.289 287.031,214.085 281.681,214.008 C279.229,213.981 279.229,213.981 276.727,213.954 C275.474,213.931 274.221,213.907 272.931,213.883 C282.485,187.609 319.815,152.768 346.931,179.883 z" fill="#F210FC"/>
    <path d="M388.931,205.883 C388.931,215.772 379.073,212.37 370.431,212.633 C368.685,212.734 366.94,212.835 365.141,212.938 C352.566,213.226 349.087,211.487 342.931,199.883 C335.702,197.005 335.702,197.005 328.931,195.883 C337.696,164.107 380.452,186.807 388.931,205.883 z" fill="#11C6C5"/>
    <path d="M342.931,183.883 C340.992,185.121 339.053,186.358 337.056,187.633 C330.874,191.197 330.874,191.197 328.931,195.883 C330.911,196.543 332.891,197.203 334.931,197.883 C336.251,202.503 337.571,207.123 338.931,211.883 C323.091,212.543 307.251,213.203 290.931,213.883 C308.443,190.534 308.443,190.534 326.306,185.258 C328.582,184.565 330.858,183.871 333.204,183.157 C338.931,181.883 338.931,181.883 342.931,183.883 z" fill="#F5E1F9"/>
    <path d="M394.93,281.883 C412.09,281.883 429.25,281.883 446.93,281.883 C446.93,282.543 446.93,283.203 446.93,283.883 C445.518,283.86 444.106,283.837 442.651,283.813 C436.242,283.754 429.84,283.818 423.43,283.883 C421.208,283.845 418.986,283.806 416.696,283.766 C400.469,284.06 396,286.683 390.93,301.883 C375.755,321.974 359.184,325.214 334.93,323.883 C334.93,319.883 334.93,319.883 339.759,319.657 C360.108,318.394 377.004,313.374 387.43,294.258 C390.93,287.883 390.93,287.883 394.93,287.883 C394.93,285.903 394.93,283.923 394.93,281.883 z" fill="#5664D9"/>
    <path d="M316.681,281.009 C329.587,280.917 334.423,281.685 334.931,295.884 C306.064,300.413 306.064,300.413 302.931,285.884 C302.931,278.673 310.657,281.305 316.681,281.009 z" fill="#13CCDC"/>
    <path d="M332.93,195.883 C334.25,200.503 335.57,205.123 336.93,209.883 C327.03,209.883 317.13,209.883 306.93,209.883 C312.491,198.762 320.072,193.026 332.93,195.883 z" fill="#F20BFE"/>
    <path d="M330.931,281.883 C335.551,281.883 340.171,281.883 344.931,281.883 C343.716,296.15 343.716,296.15 334.931,295.883 C330.931,289.883 330.931,289.883 330.931,281.883 z" fill="#EDEFF9"/>
    <path d="M288.93,281.883 C293.55,281.883 298.171,281.883 302.93,281.883 C300.951,283.203 298.97,284.523 296.93,285.883 C294.951,288.853 294.951,288.853 292.93,291.883 C288.93,289.883 288.93,289.883 288.93,281.883 z" fill="#A4DDEA"/>
    <path d="M14.949,19.134 L117.465,19.134 L117.465,480.876 L14.949,480.876 L14.949,19.134 z" fill="#01D0FC"/>
    <path d="M117.465,423.883 L230.556,423.883 L230.556,480.876 L117.465,480.876 L117.465,423.883 z" fill="#01D0FC"/>
    <path d="M117.465,19.124 L230.556,19.124 L230.556,53.883 L117.465,53.883 L117.465,19.124 z" fill="#01D0FC"/>
    <g>
      <path d="M114.849,115.554 L223.43,115.554 L223.43,163.09 L114.849,163.09 L114.849,115.554 z" fill="#F9FCFC"/>
      <path d="M114.849,115.554 L223.43,115.554 L223.43,163.09 L114.849,163.09 L114.849,115.554 z" fill-opacity="0" stroke="#F9FCFC" stroke-width="2"/>
    </g>
    <g>
      <path d="M114.849,335.461 L223.431,335.461 L223.431,382.997 L114.849,382.997 L114.849,335.461 z" fill="#F9FCFC"/>
      <path d="M114.849,335.461 L223.431,335.461 L223.431,382.997 L114.849,382.997 L114.849,335.461 z" fill-opacity="0" stroke="#F9FCFC" stroke-width="2"/>
    </g>
    <path d="M935.521,107.737 C937.265,107.713 939.009,107.688 940.806,107.663 C950.549,107.641 958.225,108.466 967.396,112.112 C968.855,112.466 970.314,112.819 971.818,113.183 C1008.905,122.22 1035.459,146.847 1055.396,178.112 C1056.515,179.816 1057.634,181.521 1058.786,183.276 C1063.095,191.261 1063.646,199.182 1063.75,208.142 C1063.788,211.056 1063.788,211.056 1063.828,214.03 C1063.842,216.109 1063.857,218.189 1063.872,220.331 C1063.889,222.494 1063.905,224.657 1063.921,226.885 C1063.949,231.457 1063.97,236.03 1063.986,240.603 C1064.009,245.262 1064.05,249.92 1064.109,254.579 C1064.195,261.33 1064.227,268.08 1064.247,274.831 C1064.282,276.894 1064.317,278.957 1064.354,281.083 C1064.161,345.812 990.84,381.832 934.684,382.699 C858.527,383.14 790.483,336.936 788.431,254.856 C788.231,218.691 794.546,188.831 817.396,160.112 C818.504,158.645 819.613,157.178 820.755,155.667 C848.556,121.149 892.719,107.769 935.521,107.737 z" fill="#FDD602"/>
    <path d="M1080.619,285.204 C1083.562,285.205 1083.562,285.205 1086.564,285.206 C1088.697,285.247 1090.831,285.289 1093.029,285.331 C1096.287,285.348 1096.287,285.348 1099.612,285.365 C1106.582,285.41 1113.551,285.511 1120.521,285.612 C1125.233,285.652 1129.945,285.689 1134.657,285.722 C1146.238,285.81 1157.817,285.944 1169.396,286.112 C1165.788,292.642 1163.728,295.891 1157.396,300.112 C1155.261,303.98 1155.261,303.98 1155.396,308.112 C1156.6,308.651 1157.804,309.19 1159.044,309.745 C1164.804,312.878 1166.041,316.135 1168.896,321.987 C1178.682,340.724 1189.352,356.673 1207.396,368.112 C1208.963,369.226 1210.531,370.34 1212.146,371.487 C1227.986,379.407 1243.51,381.106 1261.021,380.862 C1263.133,380.842 1265.244,380.822 1267.42,380.801 C1307.717,380 1346.124,363.97 1361.099,323.511 C1366.751,315.148 1376.094,321.058 1382.771,325.362 C1384.526,326.468 1386.282,327.574 1388.091,328.714 C1390.717,330.396 1390.717,330.396 1393.396,332.112 C1405.464,339.525 1417.7,346.63 1430.021,353.612 C1431.385,354.391 1432.749,355.169 1434.155,355.97 C1441.093,359.88 1447.886,363.382 1455.396,366.112 C1440.877,433.865 1353.014,479.992 1289.794,480.589 C1288.124,480.605 1286.453,480.621 1284.732,480.638 C1281.201,480.665 1277.669,480.687 1274.137,480.703 C1270.599,480.726 1267.06,480.766 1263.522,480.826 C1229.547,481.396 1198.298,477.208 1167.396,462.112 C1165.601,461.277 1163.807,460.442 1161.958,459.581 C1115.703,436.454 1083.229,390.06 1067.396,342.112 C1066.751,340.364 1066.107,338.616 1065.443,336.815 C1060.09,322.159 1059.622,311.679 1067.45,297.901 C1069.625,294.191 1069.625,294.191 1069.941,289.932 C1072.151,284.129 1074.691,285.144 1080.619,285.204 z" fill="#FDD602"/>
    <path d="M1258.763,13.481 C1263.595,13.487 1268.424,13.44 1273.255,13.39 C1301.217,13.276 1327.711,16.265 1353.396,28.112 C1354.86,28.705 1356.325,29.298 1357.833,29.909 C1379.264,38.738 1396.535,51.874 1412.646,68.362 C1414.289,70.024 1415.933,71.686 1417.626,73.399 C1429.922,86.063 1440.333,98.963 1449.396,114.112 C1450.53,115.829 1451.665,117.546 1452.833,119.315 C1455.742,124.76 1458.517,130.328 1452.075,134.011 C1450.49,134.498 1448.904,134.985 1447.271,135.487 C1437.595,138.95 1429.333,143.476 1420.646,148.862 C1409.547,155.716 1398.346,161.893 1386.568,167.534 C1381.278,170.065 1381.278,170.065 1376.099,173.441 C1371.396,176.112 1371.396,176.112 1365.396,176.112 C1363.493,172.375 1361.611,168.625 1359.841,164.823 C1341.846,130.155 1307.988,113.367 1270.174,113.261 C1266.198,113.238 1262.222,113.138 1258.247,113.038 C1224.287,112.851 1175.309,133.961 1170.146,172.612 C1166.377,183.962 1153.751,181.726 1143.711,181.513 C1128.369,181.32 1125.877,186.608 1122.146,200.487 C1117.83,216.334 1108.773,213.054 1093.521,213.612 C1091.274,213.788 1089.027,213.963 1086.712,214.144 C1070.665,214.607 1066.703,211.717 1065.813,195.458 C1065.798,189.658 1065.798,189.658 1061.396,184.112 C1055.906,126.903 1112.156,68.899 1155.396,40.112 C1156.917,39.099 1158.438,38.086 1160.005,37.042 C1169.55,31.267 1179.815,27.511 1190.271,23.737 C1191.655,23.237 1193.039,22.736 1194.465,22.22 C1215.95,14.789 1236.206,13.42 1258.763,13.481 z" fill="#FDD602"/>
    <path d="M1144.701,179.658 C1146.068,179.658 1147.434,179.657 1148.841,179.656 C1153.365,179.659 1157.888,179.69 1162.411,179.722 C1165.545,179.729 1168.678,179.735 1171.811,179.739 C1180.064,179.754 1188.316,179.793 1196.569,179.838 C1204.988,179.879 1213.407,179.897 1221.825,179.917 C1238.349,179.96 1254.872,180.028 1271.396,180.112 C1268.756,184.732 1266.116,189.352 1263.396,194.112 C1274.58,197.308 1278.107,194.372 1287.396,188.112 C1305.388,190.838 1307.645,215.695 1307.661,229.73 C1307.664,231.884 1307.667,234.038 1307.669,236.257 C1307.661,238.478 1307.654,240.699 1307.646,242.987 C1307.654,245.201 1307.661,247.414 1307.669,249.694 C1307.624,287.886 1289.768,317.667 1247.912,318.566 C1244.347,318.566 1240.781,318.544 1237.216,318.503 C1234.383,318.494 1234.383,318.494 1231.492,318.486 C1225.501,318.464 1219.511,318.413 1213.521,318.362 C1209.441,318.342 1205.362,318.324 1201.282,318.308 C1191.32,318.264 1181.358,318.195 1171.396,318.112 C1171.342,312.821 1171.302,307.529 1171.271,302.237 C1171.254,300.728 1171.237,299.218 1171.22,297.663 C1171.16,284.162 1171.16,284.162 1179.339,283.98 C1183.25,284.053 1183.25,284.053 1187.24,284.128 C1190.104,284.163 1192.969,284.197 1195.833,284.23 C1200.359,284.291 1204.883,284.362 1209.407,284.455 C1213.768,284.54 1218.128,284.587 1222.49,284.628 C1225.106,284.672 1227.722,284.716 1230.417,284.762 C1237.832,284.072 1241.352,282.266 1247.396,278.112 C1248.716,278.112 1250.036,278.112 1251.396,278.112 C1256.125,267.891 1255.933,258.119 1255.771,247.112 C1255.77,245.455 1255.768,243.797 1255.767,242.089 C1255.703,233.188 1254.979,224.897 1253.396,216.112 C1251.432,216.133 1249.469,216.154 1247.446,216.176 C1240.01,216.249 1232.573,216.295 1225.136,216.332 C1221.946,216.352 1218.756,216.379 1215.566,216.414 C1196.693,216.616 1178.666,215.893 1159.973,213.074 C1151.496,211.835 1143.073,211.248 1134.521,210.862 C1133.035,210.785 1131.548,210.708 1130.017,210.628 C1126.477,210.445 1122.937,210.277 1119.396,210.112 C1121.691,191.684 1124.672,179.586 1144.701,179.658 z" fill="#04C9A0"/>
    <path d="M1069.396,216.112 C1084.806,215.974 1100.214,215.855 1115.624,215.783 C1120.863,215.753 1126.103,215.712 1131.343,215.66 C1138.884,215.587 1146.424,215.553 1153.966,215.526 C1156.3,215.495 1158.634,215.464 1161.038,215.433 C1186.256,215.427 1208.624,224.748 1210.146,252.862 C1209.604,273.214 1196.674,284.507 1177.018,284.837 C1172.002,284.752 1166.987,284.622 1161.974,284.456 C1159.301,284.396 1156.627,284.34 1153.954,284.287 C1146.95,284.139 1139.947,283.942 1132.944,283.735 C1125.786,283.531 1118.626,283.374 1111.466,283.214 C1069.396,282.263 1069.396,282.263 1069.396,216.112 z" fill="#FED604"/>
    <path d="M872.521,181.737 C874.421,181.709 876.321,181.681 878.279,181.651 C889.618,182.673 890.146,187.672 890.14,197.702 C890.159,201.346 890.159,201.346 890.178,205.064 C890.16,207.699 890.141,210.335 890.122,213.05 C890.121,215.77 890.122,218.49 890.125,221.21 C890.125,226.913 890.104,232.615 890.068,238.318 C890.023,245.636 890.022,252.953 890.035,260.271 C890.042,265.888 890.029,271.505 890.009,277.122 C889.997,281.135 890,285.148 890.003,289.161 C889.984,291.59 889.965,294.02 889.945,296.522 C889.936,298.669 889.927,300.815 889.917,303.027 C888.48,317.049 871.944,312.96 861.396,312.112 C822.507,303.871 816.651,263.655 819.396,230.112 C824.992,203.446 844.809,181.926 872.521,181.737 z" fill="#FCFDFA"/>
    <path d="M1303.294,202.019 C1307.692,210.586 1307.65,220.266 1307.661,229.73 C1307.664,231.884 1307.667,234.038 1307.669,236.257 C1307.661,238.478 1307.654,240.699 1307.646,242.987 C1307.654,245.201 1307.661,247.414 1307.669,249.694 C1307.624,287.886 1289.768,317.667 1247.912,318.566 C1244.347,318.566 1240.781,318.544 1237.216,318.503 C1234.383,318.494 1234.383,318.494 1231.492,318.486 C1225.501,318.464 1219.511,318.413 1213.521,318.362 C1209.441,318.342 1205.362,318.324 1201.282,318.308 C1191.32,318.264 1181.358,318.195 1171.396,318.112 C1171.396,314.812 1171.396,311.512 1171.396,308.112 C1173.886,308.115 1176.376,308.117 1178.941,308.119 C1188.272,308.112 1197.6,308.026 1206.93,307.917 C1210.951,307.881 1214.972,307.866 1218.993,307.872 C1254.889,307.908 1292.872,302.588 1294.052,258.612 C1294.031,254.445 1293.978,250.279 1293.896,246.112 C1293.88,242.988 1293.88,242.988 1293.865,239.8 C1295.11,211.657 1295.11,211.657 1281.396,192.112 C1292.29,184.849 1296.776,193.22 1303.294,202.019 z" fill="#0D9FF8"/>
    <path d="M1145.156,178.977 C1146.522,178.976 1147.889,178.974 1149.297,178.973 C1153.8,178.98 1158.299,179.057 1162.802,179.136 C1165.929,179.154 1169.057,179.169 1172.184,179.179 C1180.405,179.217 1188.624,179.315 1196.844,179.426 C1205.236,179.528 1213.628,179.574 1222.021,179.624 C1238.48,179.731 1254.938,179.902 1271.396,180.112 C1265.406,198.714 1252.222,195.977 1234.966,195.636 C1232.132,195.634 1229.297,195.64 1226.463,195.653 C1219.005,195.672 1211.551,195.615 1204.093,195.534 C1192.166,195.412 1180.24,195.372 1168.312,195.394 C1164.153,195.386 1159.998,195.325 1155.839,195.26 C1153.303,195.254 1150.767,195.249 1148.154,195.243 C1145.927,195.218 1143.699,195.194 1141.404,195.169 C1134.063,196.322 1130.877,199.255 1125.396,204.112 C1124.076,204.112 1122.756,204.112 1121.396,204.112 C1122.728,187.128 1127.383,178.817 1145.156,178.977 z" fill="#03A6F7"/>
    <path d="M1061.396,184.112 C1070.562,192.481 1069.587,200.43 1069.396,212.112 C1070.661,212.052 1071.927,211.991 1073.231,211.929 C1173.078,207.233 1173.078,207.233 1189.396,218.112 C1181.646,220.362 1181.646,220.362 1179.396,218.112 C1175.96,217.866 1172.515,217.757 1169.071,217.702 C1166.869,217.662 1164.667,217.622 1162.398,217.581 C1160.002,217.547 1157.606,217.514 1155.138,217.48 C1152.699,217.438 1150.26,217.396 1147.748,217.354 C1139.922,217.222 1132.097,217.105 1124.271,216.987 C1118.98,216.901 1113.69,216.814 1108.4,216.726 C1095.399,216.509 1082.397,216.311 1069.396,216.112 C1069.396,237.892 1069.396,259.672 1069.396,282.112 C1103.056,282.112 1136.716,282.112 1171.396,282.112 C1171.396,315.472 1104.749,285.445 1071.396,286.112 C1070.736,290.732 1070.076,295.352 1069.396,300.112 C1066.521,305.487 1066.521,305.487 1063.396,310.112 C1062.736,311.597 1062.076,313.082 1061.396,314.612 C1059.396,318.112 1059.396,318.112 1053.396,320.112 C1053.973,318.71 1054.551,317.307 1055.146,315.862 C1059.114,305.722 1061.899,297.261 1061.85,286.285 C1061.85,284.004 1061.849,281.722 1061.849,279.372 C1061.818,275.724 1061.818,275.724 1061.786,272.003 C1061.781,269.49 1061.775,266.976 1061.769,264.387 C1061.751,257.738 1061.715,251.09 1061.67,244.442 C1061.629,237.645 1061.611,230.847 1061.591,224.05 C1061.547,210.737 1061.48,197.425 1061.396,184.112 z" fill="#FAF8E2"/>
    <path d="M937.646,119.612 C940.345,119.55 940.345,119.55 943.099,119.487 C962.486,119.376 978.491,124.44 994.896,134.612 C996.185,135.399 997.475,136.186 998.803,136.996 C1009.908,143.998 1019.09,151.196 1023.396,164.112 C1011.396,158.112 1011.396,158.112 1011.396,154.112 C1008.07,152.761 1004.734,151.434 1001.396,150.112 C999.251,148.586 997.106,147.06 994.896,145.487 C969.148,129.329 938.85,128.429 909.396,128.112 C909.396,115.839 928.028,119.666 937.646,119.612 z" fill="#FDF8DF"/>
    <path d="M1275.396,198.112 C1273.416,199.102 1273.416,199.102 1271.396,200.112 C1270.468,201.969 1270.468,201.969 1269.521,203.862 C1267.338,208.229 1264.982,210.853 1261.396,214.112 C1257.413,210.129 1259.208,203.361 1259.396,198.112 C1263.348,194.16 1270.346,197.286 1275.396,198.112 z" fill="#A8D1B5"/>
  </g>
</svg>
